<svg xmlns="http://www.w3.org/2000/svg" viewBox="0 0 64 64" role="img" aria-label="Capduction">
  <defs>
    <linearGradient id="fav-bubble" x1="0%" y1="0%" x2="100%" y2="100%">
      <stop offset="0%" stop-color="#C4B5FD"/>
      <stop offset="40%" stop-color="#F0ABFC"/>
      <stop offset="100%" stop-color="#FBA98C"/>
    </linearGradient>
    <linearGradient id="fav-spark" x1="0%" y1="0%" x2="100%" y2="100%">
      <stop offset="0%" stop-color="#FFE9C9"/>
      <stop offset="100%" stop-color="#FB7185"/>
    </linearGradient>
    <linearGradient id="fav-shadow" x1="0%" y1="0%" x2="0%" y2="100%">
      <stop offset="0%" stop-color="#7C3AED" stop-opacity="0"/>
      <stop offset="100%" stop-color="#1E1B4B" stop-opacity="0.18"/>
    </linearGradient>
  </defs>
  <path d="M14 12 h28 a10 10 0 0 1 10 10 v14 a10 10 0 0 1 -10 10 h-12 l-7 8 1.5 -8 h-10.5 a10 10 0 0 1 -10 -10 v-14 a10 10 0 0 1 10 -10 z" fill="url(#fav-bubble)"/>
  <path d="M14 12 h28 a10 10 0 0 1 10 10 v14 a10 10 0 0 1 -10 10 h-12 l-7 8 1.5 -8 h-10.5 a10 10 0 0 1 -10 -10 v-14 a10 10 0 0 1 10 -10 z" fill="url(#fav-shadow)"/>
  <rect x="18" y="22" width="22" height="2.4" rx="1.2" fill="#FFFFFF" opacity="0.9"/>
  <rect x="18" y="28" width="28" height="2.4" rx="1.2" fill="#FFFFFF" opacity="0.85"/>
  <rect x="18" y="34" width="16" height="2.4" rx="1.2" fill="#FFFFFF" opacity="0.8"/>
  <g transform="translate(50 14)">
    <path d="M0 -5 L1.3 -1.3 L5 0 L1.3 1.3 L0 5 L-1.3 1.3 L-5 0 L-1.3 -1.3 Z" fill="url(#fav-spark)"/>
    <circle cx="0" cy="0" r="1" fill="#FFFFFF"/>
  </g>
</svg>
